PathFileType	4	(X/Y/Z)	./resultDataOpenSim/trcMotMarkerGrf/sub06/qtm-15-05.trc
DataRate	CameraRate	NumFrames	NumMarkers	Units	OrigDataRate	OrigDataStartFrame	OrigNumFrames
250.000000	250.000000	10	24	m	250.000000	257	513
Frame#	Time	L.Toe.Tip			R.Toe.Tip			L.Ankle.Lat			R.Ankle.Lat			L.Ankle.Med			R.Ankle.Med			L.Heel			R.Heel			L.Knee.Lat			R.Knee.Lat			L.Knee.Med			R.Knee.Med			L.Thigh.Upper			R.Thigh.Upper			L.ASIS			R.ASIS			V.Sacral			L.Acromium			R.Acromium			C7			L.Elbow			R.Elbow			L.Wrist.Lat			R.Wrist.Lat
		X1	Y1	Z1	X2	Y2	Z2	X3	Y3	Z3	X4	Y4	Z4	X5	Y5	Z5	X6	Y6	Z6	X7	Y7	Z7	X8	Y8	Z8	X9	Y9	Z9	X10	Y10	Z10	X11	Y11	Z11	X12	Y12	Z12	X13	Y13	Z13	X14	Y14	Z14	X15	Y15	Z15	X16	Y16	Z16	X17	Y17	Z17	X18	Y18	Z18	X19	Y19	Z19	X20	Y20	Z20	X21	Y21	Z21	X22	Y22	Z22	X23	Y23	Z23	X24	Y24	Z24

257	1.024	0.14940641	-0.064539326	-0.030360927	0.73285481	0.13112982	0.12474174	0.05171219	0.0020728642	-0.089120287	0.59707662	0.13723337	0.14202636	0.038397049	0.024860351	-0.0070074188	0.61666605	0.16332572	0.055790305	-0.03178202	-0.0013919816	-0.061255713	0.54894823	0.10608471	0.079336734	0.18388542	0.35595633	-0.10115755	0.57602676	0.52695119	0.15775585	0.15130158	0.36293714	0.016753309	0.56134803	0.50458199	0.036462558	0.26787348	0.72819408	-0.17162904	0.2956493	0.76862471	0.17963563	0.35316015	0.77180428	-0.13198717	0.37215656	0.8026887	0.10633057	0.18670142	0.87282411	-0.0020728413	0.3960024	1.2639867	-0.17525096	0.34285432	1.2508251	0.18108665	0.29649114	1.3004667	-0.011228145	0.41559026	0.94523544	-0.26822262	0.16199168	0.99386407	0.2302428	0.65756223	0.87609934	-0.23607541	0.17401094	0.76875721	0.30865407
258	1.028	0.14953363	-0.064500678	-0.030334619	0.75198963	0.13222772	0.12253026	0.052592768	0.0031859576	-0.089265736	0.61595288	0.13664064	0.14039255	0.039711609	0.025973115	-0.0070757234	0.63486015	0.16353693	0.054214243	-0.030797749	0.00055392273	-0.060986975	0.56814178	0.10522722	0.077611756	0.18672316	0.35639475	-0.10114184	0.58310887	0.52589829	0.15685059	0.15491815	0.362984	0.01682089	0.56898182	0.50353232	0.035806698	0.27322288	0.72743083	-0.17142317	0.30374645	0.76782923	0.18002019	0.35896874	0.77081241	-0.13270071	0.37976763	0.80193571	0.10636257	0.19356779	0.8720798	-0.0013516063	0.40350485	1.2633883	-0.17484184	0.35078163	1.2499838	0.18155204	0.3041932	1.2998494	-0.010723755	0.42576132	0.94470546	-0.26762544	0.16769755	0.99481677	0.23010785	0.66890026	0.88011511	-0.23398896	0.17586149	0.76995383	0.30944136
259	1.032	0.14965985	-0.064456246	-0.030294884	0.77050823	0.13336321	0.12020948	0.053496019	0.0043139474	-0.089438618	0.63430715	0.13614523	0.13869116	0.041051869	0.027085502	-0.0071051293	0.65249277	0.16379275	0.052611705	-0.029738873	0.002447691	-0.060616704	0.58674577	0.10452467	0.075810984	0.18975392	0.35676137	-0.10105401	0.59024518	0.52463197	0.15598539	0.15871652	0.36304573	0.016907455	0.57644566	0.50227877	0.035154713	0.27866854	0.72666492	-0.17117281	0.31215803	0.76710242	0.18059725	0.3648669	0.76984022	-0.13336584	0.38743652	0.8011538	0.10645401	0.20041631	0.87129459	-0.00057616144	0.41103127	1.2627279	-0.1744363	0.35868616	1.2491042	0.18201902	0.311899	1.2991916	-0.010223157	0.43601583	0.94408716	-0.26666787	0.17345936	0.99569019	0.22998974	0.68011755	0.88401376	-0.23191085	0.17795586	0.77114644	0.31024319
260	1.036	0.1497788	-0.064414714	-0.030252065	0.78835708	0.13453552	0.11779547	0.054442336	0.0054449009	-0.089611675	0.65204566	0.13572929	0.13693006	0.042444456	0.028199571	-0.0070910304	0.66946814	0.1640463	0.050962548	-0.028593258	0.0042904788	-0.060174005	0.60468674	0.10393362	0.073981857	0.193019	0.35704346	-0.10090564	0.59746646	0.52315774	0.15516878	0.1626773	0.36315768	0.017021019	0.58375626	0.50083053	0.034511598	0.28420155	0.72589316	-0.17085819	0.32055051	0.76630879	0.18117596	0.37085236	0.7688903	-0.13396201	0.39516489	0.80033874	0.10659119	0.20722415	0.87047298	0.00026301564	0.41858205	1.2620004	-0.1740248	0.36657165	1.2481834	0.18249218	0.31961543	1.2985034	-0.0097157244	0.44634541	0.94338761	-0.26554859	0.17927572	0.99647893	0.22988623	0.69120802	0.88780463	-0.22984149	0.18035888	0.77232946	0.31106321
261	1.04	0.14989485	-0.064377496	-0.030208164	0.8054931	0.1357621	0.1152997	0.055451674	0.0065705839	-0.08977573	0.66906741	0.13537258	0.13512274	0.043906111	0.029308825	-0.0070430167	0.68571761	0.16427289	0.049226986	-0.027366273	0.0061326068	-0.059749283	0.62190207	0.10338625	0.072170492	0.19655716	0.35723246	-0.1007369	0.60478335	0.52147274	0.15439516	0.16675315	0.36333706	0.017176487	0.59094251	0.4991998	0.033885443	0.28981052	0.72511086	-0.17047176	0.3287775	0.7653694	0.18166801	0.37692137	0.76795939	-0.13448443	0.40294946	0.7994842	0.10676211	0.21397721	0.86961902	0.001159771	0.4261576	1.2612033	-0.17359847	0.37443731	1.2472191	0.18297124	0.32734605	1.2977935	-0.0091960072	0.45668364	0.94265299	-0.2646018	0.18514476	0.99718106	0.22979083	0.70217351	0.8915016	-0.22777887	0.18308304	0.77348913	0.31190501
262	1.044	0.1500167	-0.064340515	-0.030161378	0.82185578	0.13705112	0.11273822	0.056538559	0.0076878106	-0.089928317	0.68528272	0.13503601	0.13327124	0.045431731	0.030407292	-0.0069754144	0.70118695	0.16447533	0.047370361	-0.026073984	0.0080201739	-0.059415759	0.63835242	0.10280892	0.070349079	0.20037402	0.35731858	-0.10058424	0.61217204	0.51957023	0.15363396	0.17093713	0.3635859	0.017364367	0.59805055	0.49740651	0.033271159	0.29549149	0.72431155	-0.17002842	0.33693003	0.76430945	0.1821118	0.38307044	0.76704035	-0.13493401	0.41078691	0.79859204	0.1069571	0.22069124	0.86873344	0.0021036839	0.43375162	1.2603415	-0.17315735	0.38228506	1.2462094	0.1834563	0.33508211	1.2970608	-0.0086716119	0.46697168	0.94191178	-0.26401201	0.19106111	0.99780058	0.22970006	0.71302241	0.89510515	-0.22571505	0.18605582	0.77461025	0.31276591
263	1.048	0.15015069	-0.064299678	-0.030111508	0.83737097	0.13837132	0.11012333	0.057700868	0.0088049703	-0.090076622	0.70064845	0.13465302	0.13134094	0.047009037	0.031494352	-0.006905428	0.71581796	0.16465616	0.045377534	-0.024730989	0.0099632927	-0.059183145	0.65403868	0.10214559	0.068400798	0.20444093	0.35729515	-0.10044889	0.61959979	0.51745888	0.1528443	0.17526403	0.36388893	0.017558372	0.6051366	0.49547007	0.032647272	0.30125323	0.72348333	-0.16955751	0.34510847	0.76317487	0.18254951	0.3892982	0.76612804	-0.13531086	0.41868046	0.79767657	0.10717278	0.22742638	0.86780709	0.0030786097	0.44135493	1.2594259	-0.17271014	0.39011976	1.245157	0.18395199	0.34281508	1.2962985	-0.0081521362	0.47720015	0.94115121	-0.26370903	0.19700843	0.99834598	0.22961602	0.72375745	0.89860311	-0.22364021	0.1891225	0.77567781	0.31363173
264	1.052	0.15029865	-0.064254764	-0.030061004	0.85197248	0.13965168	0.10745447	0.058920731	0.009934685	-0.090242859	0.71517092	0.13415066	0.12927828	0.048632782	0.032569419	-0.0068525451	0.72956728	0.16477899	0.043267134	-0.023344778	0.011952891	-0.05903234	0.66898787	0.10135861	0.066210699	0.20872532	0.35716639	-0.1003096	0.6270794	0.51518385	0.15201594	0.17977716	0.3642099	0.017735071	0.61225461	0.49340121	0.03198576	0.30710735	0.72261263	-0.16907544	0.35331685	0.76197885	0.18296979	0.39560599	0.76522266	-0.13561649	0.42664437	0.79675866	0.10741597	0.2342687	0.86682022	0.0040548262	0.44896527	1.2584681	-0.17226829	0.39794148	1.24407	0.18446519	0.35054719	1.2955042	-0.0076335605	0.48738656	0.94035089	-0.26352719	0.20296549	0.99882156	0.22954583	0.73437538	0.90198535	-0.22155373	0.19217751	0.77668434	0.31448887
265	1.056	0.15045812	-0.064209104	-0.030013725	0.86562817	0.1407935	0.10472573	0.060194558	0.011067154	-0.090417408	0.72884932	0.13348238	0.12706478	0.050306845	0.033632099	-0.0068354929	0.74243323	0.16477143	0.041084327	-0.021914278	0.01398276	-0.058951924	0.68317401	0.10042468	0.063780674	0.21320825	0.35694641	-0.10015526	0.63466388	0.51281629	0.15117017	0.18450522	0.36449881	0.017883682	0.61945169	0.49121045	0.031252357	0.31305611	0.72168795	-0.16857552	0.36154522	0.76071831	0.18335228	0.40199817	0.76432701	-0.13585632	0.43470774	0.79585884	0.10770511	0.24129361	0.86575698	0.0049885234	0.45658609	1.257476	-0.17183519	0.40574393	1.2429561	0.18499964	0.35828091	1.294683	-0.0070998497	0.4975529	0.93952118	-0.26334056	0.20894676	0.99922545	0.22949737	0.74488073	0.90525286	-0.21946708	0.19527793	0.77763251	0.31533882
266	1.06	0.15062437	-0.064166648	-0.029973735	0.87834995	0.14167622	0.10194296	0.061542906	0.012173313	-0.090546143	0.74163542	0.13263643	0.1247358	0.052037385	0.034689811	-0.0068665586	0.75445591	0.16456226	0.038865908	-0.020426754	0.016054071	-0.058934063	0.69647219	0.099342545	0.061233676	0.21788179	0.35665382	-0.099994406	0.64238312	0.51042243	0.15032024	0.18945542	0.36470739	0.018011346	0.62676741	0.4889206	0.030403273	0.31909328	0.72070132	-0.16805155	0.3698151	0.75939013	0.18369478	0.40848472	0.76344347	-0.13603838	0.44290406	0.79499133	0.10805945	0.24853259	0.86462898	0.0058403919	0.46421565	1.2564531	-0.17139977	0.41352323	1.2418177	0.18555557	0.36600704	1.2938401	-0.0065377201	0.50772209	0.93870349	-0.26307678	0.21502841	0.99955661	0.22947456	0.755288	0.90841005	-0.21738889	0.19857183	0.77852659	0.31619315
